# xmcd CD database file
#
# Track frame offsets:
#	150
#	11592
#	26657
#	39492
#	50782
#	67506
#	77983
#	93683
#	107006
#	116972
#	138554
#	152196
#	164564
#	185133
#	199858
#	217341
#	228966
#	241129
#	259941
#	272885
#	287794
#	298533
#	311158
#
# Disc length: 4299 seconds
#
# Revision: 1
# Processed by: cddbd v1.5.2PL0 Copyright (c) Steve Scherf et al.
# Submitted via: CDex 1.79
#
DISCID=6810c917
DTITLE=Andy Lee Lang - singin' the blues - Remember Marty Robbins
DYEAR=2015
DGENRE=Country
TTITLE0=Singing The Blues
TTITLE1=Don't Worry
TTITLE2=Tonight Carmen
TTITLE3=A White Sport Coat
TTITLE4=Some Memories Just Won't Die
TTITLE5=Among My Souvenirs
TTITLE6=Ghost Train
TTITLE7=The American Dream
TTITLE8=It's Drivin' Me Crazy
TTITLE9=El Paso
TTITLE10=The Hanging Tree
TTITLE11=Ka-Lu-A (Love Song Of Kalua)
TTITLE12=El Paso City
TTITLE13=Jumper Cable Man
TTITLE14=You Gave Me A Mountain
TTITLE15=Ribbon Of Darkness
TTITLE16=There's No Wings On My Angel
TTITLE17=Love Me
TTITLE18=Five Brothers
TTITLE19=Girl From Spanish Town
TTITLE20=Grown Up Tears
TTITLE21=You Don't Owe Me A Thing
TTITLE22=Singing The Blues (Acustic Blues Bonus)
EXTD=YEAR: 2015
EXTT0=
EXTT1=
EXTT2=
EXTT3=
EXTT4=
EXTT5=
EXTT6=
EXTT7=
EXTT8=
EXTT9=
EXTT10=
EXTT11=
EXTT12=
EXTT13=
EXTT14=
EXTT15=
EXTT16=
EXTT17=
EXTT18=
EXTT19=
EXTT20=
EXTT21=
EXTT22=
PLAYORDER=
